<svg width="90" height="16" viewBox="0 0 90 16" fill="none" xmlns="http://www.w3.org/2000/svg">
<path d="M13.3933 15.032C13.4373 15.164 13.4593 15.274 13.4593 15.362C13.4593 15.6113 13.3199 15.802 13.0413 15.934C12.9386 15.978 12.8286 16 12.7112 16C12.4619 16 12.2713 15.8533 12.1393 15.56L10.7533 12.282H3.66925L2.30525 15.56C2.18792 15.8533 1.99725 16 1.73325 16C1.63058 16 1.52058 15.978 1.40325 15.934C1.12458 15.802 0.98525 15.6113 0.98525 15.362C0.98525 15.274 1.00725 15.164 1.05125 15.032L6.41925 2.14C6.56592 1.788 6.82258 1.612 7.18925 1.612H7.25525C7.62192 1.612 7.86392 1.788 7.98125 2.14L13.3933 15.032ZM4.21925 10.918H10.1813L7.18925 3.768L4.21925 10.918ZM20.4747 5.374C20.9293 5.374 21.1567 5.60133 21.1567 6.056C21.1567 6.51067 20.9293 6.738 20.4747 6.738H17.8787V15.318C17.8787 15.7727 17.6513 16 17.1967 16C16.742 16 16.5147 15.7727 16.5147 15.318V6.738H15.6347C15.18 6.738 14.9527 6.51067 14.9527 6.056C14.9527 5.60133 15.18 5.374 15.6347 5.374H16.5147V4.67C16.5147 3.29133 16.8373 2.27933 17.4827 1.634C18.128 0.988666 19.14 0.665999 20.5187 0.665999C20.944 0.665999 21.1567 0.893333 21.1567 1.348C21.1567 1.80267 20.944 2.03 20.5187 2.03C19.536 2.03 18.8467 2.22067 18.4507 2.602C18.0693 2.98333 17.8787 3.67267 17.8787 4.67V5.374H20.4747ZM29.4001 5.374C29.8401 5.374 30.0601 5.60133 30.0601 6.056C30.0601 6.51067 29.8401 6.738 29.4001 6.738C28.0801 6.738 27.0608 7.024 26.3421 7.596C25.6381 8.168 25.2715 8.97467 25.2421 10.016V15.318C25.2421 15.7727 25.0148 16 24.5601 16C24.1055 16 23.8781 15.7727 23.8781 15.318V6.056C23.8781 5.60133 24.1055 5.374 24.5601 5.374C25.0148 5.374 25.2421 5.60133 25.2421 6.056V7.486C25.6528 6.79667 26.2101 6.276 26.9141 5.924C27.6181 5.55733 28.4468 5.374 29.4001 5.374ZM33.1754 16C32.7207 16 32.4934 15.7727 32.4934 15.318V6.056C32.4934 5.60133 32.7207 5.374 33.1754 5.374C33.63 5.374 33.8574 5.60133 33.8574 6.056V15.318C33.8574 15.7727 33.63 16 33.1754 16ZM32.8894 3.438C32.332 3.438 32.0534 3.152 32.0534 2.58V2.008C32.0534 1.744 32.1194 1.546 32.2514 1.414C32.398 1.26733 32.6107 1.194 32.8894 1.194H33.4174C33.6814 1.194 33.8794 1.26733 34.0114 1.414C34.158 1.56067 34.2314 1.75867 34.2314 2.008V2.58C34.2314 2.85867 34.158 3.07133 34.0114 3.218C33.8794 3.36467 33.6814 3.438 33.4174 3.438H32.8894ZM41.7743 16C40.4836 16 39.5083 15.7213 38.8483 15.164C38.2029 14.592 37.8363 13.712 37.7483 12.524C37.7336 12.304 37.7849 12.1353 37.9023 12.018C38.0343 11.886 38.2103 11.82 38.4303 11.82C38.8409 11.82 39.0683 12.04 39.1123 12.48C39.1709 13.2867 39.3983 13.8513 39.7943 14.174C40.1903 14.482 40.8503 14.636 41.7743 14.636H44.9423C45.9543 14.636 46.6509 14.4453 47.0323 14.064C47.4283 13.668 47.6263 12.9713 47.6263 11.974C47.6263 10.962 47.4283 10.258 47.0323 9.862C46.6363 9.466 45.9396 9.268 44.9423 9.268H42.0163C40.6963 9.268 39.7209 8.96 39.0903 8.344C38.4743 7.71333 38.1663 6.74533 38.1663 5.44C38.1663 4.12 38.4743 3.152 39.0903 2.536C39.7209 1.92 40.6889 1.612 41.9943 1.612H44.9423C46.1596 1.612 47.0763 1.876 47.6923 2.404C48.3083 2.932 48.6529 3.75333 48.7263 4.868C48.7409 5.088 48.6896 5.264 48.5723 5.396C48.4549 5.51333 48.2863 5.572 48.0663 5.572C47.8609 5.572 47.6996 5.51333 47.5823 5.396C47.4649 5.27867 47.3916 5.11 47.3623 4.89C47.3036 4.186 47.0909 3.69467 46.7243 3.416C46.3723 3.12267 45.7783 2.976 44.9423 2.976H41.9943C41.0556 2.976 40.4103 3.152 40.0583 3.504C39.7063 3.856 39.5303 4.50133 39.5303 5.44C39.5303 6.364 39.7063 7.00933 40.0583 7.376C40.4249 7.728 41.0776 7.904 42.0163 7.904H44.9423C46.3356 7.904 47.3549 8.234 48.0003 8.894C48.6603 9.554 48.9903 10.5807 48.9903 11.974C48.9903 13.3527 48.6603 14.372 48.0003 15.032C47.3403 15.6773 46.3209 16 44.9423 16H41.7743ZM58.052 5.374C59.4454 5.374 60.472 5.704 61.132 6.364C61.792 7.024 62.122 8.05067 62.122 9.444V15.318C62.122 15.7727 61.8947 16 61.44 16C60.9854 16 60.758 15.7727 60.758 15.318V14.416C60.01 15.472 58.7854 16 57.084 16H55.852C54.6787 16 53.8134 15.7287 53.256 15.186C52.7134 14.6287 52.442 13.7633 52.442 12.59C52.442 11.4167 52.7207 10.5587 53.278 10.016C53.8354 9.45867 54.6934 9.18 55.852 9.18H60.758C60.7287 8.256 60.5087 7.618 60.098 7.266C59.702 6.914 59.02 6.738 58.052 6.738H56.776C55.896 6.738 55.2507 6.826 54.84 7.002C54.4294 7.16333 54.1654 7.44933 54.048 7.86C53.9747 8.08 53.8867 8.24133 53.784 8.344C53.6814 8.432 53.5274 8.476 53.322 8.476C53.102 8.476 52.926 8.41733 52.794 8.3C52.662 8.168 52.618 7.992 52.662 7.772C52.794 6.95067 53.1974 6.34933 53.872 5.968C54.5467 5.572 55.5147 5.374 56.776 5.374H58.052ZM60.758 12.414V10.544H55.852C55.06 10.544 54.5174 10.6907 54.224 10.984C53.9454 11.2627 53.806 11.798 53.806 12.59C53.806 13.382 53.9454 13.9247 54.224 14.218C54.5174 14.4967 55.06 14.636 55.852 14.636H57.084C58.1547 14.636 58.9834 14.4747 59.57 14.152C60.1714 13.8147 60.5454 13.3087 60.692 12.634L60.758 12.414ZM74.9814 5.374C75.4361 5.374 75.6634 5.60133 75.6634 6.056V15.318C75.6634 15.7727 75.4361 16 74.9814 16C74.5267 16 74.2994 15.7727 74.2994 15.318V14.526C73.5661 15.5087 72.3414 16 70.6254 16H70.0094C68.6161 16 67.5894 15.67 66.9294 15.01C66.2694 14.35 65.9394 13.3233 65.9394 11.93V6.056C65.9394 5.60133 66.1667 5.374 66.6214 5.374C67.0761 5.374 67.3034 5.60133 67.3034 6.056V11.93C67.3034 12.9567 67.5014 13.668 67.8974 14.064C68.2934 14.4453 68.9974 14.636 70.0094 14.636H70.6254C71.7547 14.636 72.6421 14.4747 73.2874 14.152C73.9327 13.8147 74.2701 13.316 74.2994 12.656V6.056C74.2994 5.60133 74.5267 5.374 74.9814 5.374ZM84.3089 14.636C84.7635 14.636 84.9909 14.8633 84.9909 15.318C84.9909 15.7727 84.7635 16 84.3089 16C82.9302 16 81.9182 15.6847 81.2729 15.054C80.6275 14.4087 80.3049 13.3967 80.3049 12.018V6.738H79.0729C78.6182 6.738 78.3909 6.51067 78.3909 6.056C78.3909 5.60133 78.6182 5.374 79.0729 5.374H80.3049V3.24C80.3049 2.78533 80.5322 2.558 80.9869 2.558C81.4415 2.558 81.6689 2.78533 81.6689 3.24V5.374H84.3529C84.8075 5.374 85.0349 5.60133 85.0349 6.056C85.0349 6.51067 84.8075 6.738 84.3529 6.738H81.6689V12.018C81.6689 12.6927 81.7495 13.2207 81.9109 13.602C82.0722 13.9687 82.3435 14.2327 82.7249 14.394C83.1062 14.5553 83.6342 14.636 84.3089 14.636ZM88.9058 16C88.4512 16 88.2238 15.7727 88.2238 15.318V6.056C88.2238 5.60133 88.4512 5.374 88.9058 5.374C89.3605 5.374 89.5878 5.60133 89.5878 6.056V15.318C89.5878 15.7727 89.3605 16 88.9058 16ZM88.6198 3.438C88.0625 3.438 87.7838 3.152 87.7838 2.58V2.008C87.7838 1.744 87.8498 1.546 87.9818 1.414C88.1285 1.26733 88.3412 1.194 88.6198 1.194H89.1478C89.4118 1.194 89.6098 1.26733 89.7418 1.414C89.8885 1.56067 89.9618 1.75867 89.9618 2.008V2.58C89.9618 2.85867 89.8885 3.07133 89.7418 3.218C89.6098 3.36467 89.4118 3.438 89.1478 3.438H88.6198Z" fill="black"/>
</svg>
