<svg width="136" height="25" viewBox="0 0 136 25" fill="none" xmlns="http://www.w3.org/2000/svg">
<path d="M1.44813 24C1.27746 24 1.11746 23.936 0.968125 23.808C0.840125 23.68 0.776125 23.52 0.776125 23.328L0.840125 23.04L8.55212 2.4C8.70146 1.86667 9.07479 1.6 9.67213 1.6H13.1601C13.7148 1.6 14.0881 1.86667 14.2801 2.4L21.9921 23.04C22.0135 23.104 22.0241 23.2 22.0241 23.328C22.0241 23.52 21.9601 23.68 21.8321 23.808C21.7041 23.936 21.5548 24 21.3841 24H18.6001C18.3228 24 18.1095 23.936 17.9601 23.808C17.8108 23.68 17.7148 23.5413 17.6721 23.392L16.1681 19.488H6.66413L5.16013 23.392C4.98946 23.7973 4.68013 24 4.23213 24H1.44813ZM15.0481 15.808L11.4001 5.92L7.78413 15.808H15.0481ZM26.4689 24C26.2555 24 26.0742 23.9253 25.9249 23.776C25.7755 23.6267 25.7009 23.4453 25.7009 23.232V10.752H23.1089C22.8955 10.752 22.7142 10.6773 22.5649 10.528C22.4155 10.3573 22.3409 10.1653 22.3409 9.952V8.128C22.3409 7.91467 22.4155 7.73333 22.5649 7.584C22.7142 7.43467 22.8955 7.36 23.1089 7.36H25.7009V6.048C25.7009 2.22933 27.7915 0.32 31.9729 0.32H34.1489C34.3835 0.32 34.5649 0.394666 34.6929 0.543999C34.8422 0.671998 34.9169 0.853332 34.9169 1.088V2.912C34.9169 3.14667 34.8422 3.33867 34.6929 3.488C34.5435 3.63733 34.3622 3.712 34.1489 3.712H32.1009C31.2689 3.712 30.6822 3.91467 30.3409 4.32C30.0209 4.72533 29.8609 5.35467 29.8609 6.208V7.36H33.8289C34.0635 7.36 34.2449 7.43467 34.3729 7.584C34.5222 7.712 34.5969 7.89333 34.5969 8.128V9.952C34.5969 10.1867 34.5222 10.3787 34.3729 10.528C34.2235 10.6773 34.0422 10.752 33.8289 10.752H29.8609V23.232C29.8609 23.4453 29.7862 23.6267 29.6369 23.776C29.4875 23.9253 29.3062 24 29.0929 24H26.4689ZM37.9269 24C37.7135 24 37.5322 23.9253 37.3829 23.776C37.2335 23.6267 37.1589 23.4453 37.1589 23.232V8.16C37.1589 7.94667 37.2335 7.76533 37.3829 7.616C37.5322 7.44533 37.7135 7.36 37.9269 7.36H40.5189C40.7535 7.36 40.9455 7.43467 41.0949 7.584C41.2442 7.73333 41.3189 7.92533 41.3189 8.16V9.472C41.8309 8.78933 42.4709 8.26667 43.2389 7.904C44.0282 7.54133 44.9242 7.36 45.9269 7.36H47.2389C47.4735 7.36 47.6549 7.43467 47.7829 7.584C47.9322 7.712 48.0069 7.89333 48.0069 8.128V10.432C48.0069 10.6453 47.9322 10.8267 47.7829 10.976C47.6549 11.1253 47.4735 11.2 47.2389 11.2H44.7429C43.7402 11.2 42.9509 11.488 42.3749 12.064C41.7989 12.64 41.5109 13.4293 41.5109 14.432V23.232C41.5109 23.4453 41.4362 23.6267 41.2869 23.776C41.1375 23.9253 40.9455 24 40.7109 24H37.9269ZM51.1426 4.608C50.9293 4.608 50.748 4.53333 50.5986 4.384C50.4493 4.23467 50.3746 4.05333 50.3746 3.84V1.536C50.3746 1.32267 50.4493 1.14133 50.5986 0.991999C50.748 0.842666 50.9293 0.768 51.1426 0.768H54.0546C54.268 0.768 54.4493 0.842666 54.5986 0.991999C54.7693 1.14133 54.8546 1.32267 54.8546 1.536V3.84C54.8546 4.05333 54.78 4.23467 54.6306 4.384C54.4813 4.53333 54.2893 4.608 54.0546 4.608H51.1426ZM51.2706 24C51.0573 24 50.876 23.9253 50.7266 23.776C50.5773 23.6267 50.5026 23.4453 50.5026 23.232V8.128C50.5026 7.91467 50.5773 7.73333 50.7266 7.584C50.876 7.43467 51.0573 7.36 51.2706 7.36H53.9266C54.1613 7.36 54.3426 7.43467 54.4706 7.584C54.62 7.712 54.6946 7.89333 54.6946 8.128V23.232C54.6946 23.4453 54.62 23.6267 54.4706 23.776C54.3426 23.9253 54.1613 24 53.9266 24H51.2706ZM67.1001 24.32C65.2015 24.32 63.5695 24.032 62.2041 23.456C60.8388 22.88 59.8041 22.1227 59.1001 21.184C58.3961 20.2453 58.0228 19.232 57.9801 18.144C57.9801 17.952 58.0441 17.792 58.1721 17.664C58.3001 17.536 58.4601 17.472 58.6521 17.472H61.5001C61.7561 17.472 61.9481 17.5253 62.0761 17.632C62.2255 17.7173 62.3641 17.8667 62.4921 18.08C62.7055 18.8053 63.1961 19.4133 63.9641 19.904C64.7321 20.3947 65.7775 20.64 67.1001 20.64C68.6148 20.64 69.7561 20.3947 70.5241 19.904C71.2921 19.392 71.6761 18.688 71.6761 17.792C71.6761 17.1947 71.4735 16.704 71.0681 16.32C70.6841 15.936 70.0975 15.6053 69.3081 15.328C68.5401 15.0507 67.3881 14.7093 65.8521 14.304C63.3348 13.7067 61.4895 12.9173 60.3161 11.936C59.1641 10.9333 58.5881 9.51467 58.5881 7.68C58.5881 6.44267 58.9188 5.344 59.5801 4.384C60.2628 3.424 61.2335 2.66667 62.4921 2.112C63.7721 1.55733 65.2548 1.28 66.9401 1.28C68.6895 1.28 70.2041 1.58933 71.4841 2.208C72.7641 2.82667 73.7348 3.60533 74.3961 4.544C75.0788 5.46133 75.4415 6.37867 75.4841 7.296C75.4841 7.488 75.4201 7.648 75.2921 7.776C75.1641 7.904 75.0041 7.968 74.8121 7.968H71.8361C71.3881 7.968 71.0788 7.76533 70.9081 7.36C70.7801 6.67733 70.3535 6.112 69.6281 5.664C68.9028 5.19467 68.0068 4.96 66.9401 4.96C65.7455 4.96 64.8068 5.184 64.1241 5.632C63.4415 6.08 63.1001 6.73067 63.1001 7.584C63.1001 8.18133 63.2708 8.672 63.6121 9.056C63.9535 9.44 64.4868 9.78133 65.2121 10.08C65.9588 10.3787 67.0255 10.7093 68.4121 11.072C70.2895 11.4987 71.7828 11.9787 72.8921 12.512C74.0228 13.0453 74.8548 13.7173 75.3881 14.528C75.9215 15.3387 76.1881 16.3733 76.1881 17.632C76.1881 18.9973 75.8041 20.192 75.0361 21.216C74.2895 22.2187 73.2228 22.9867 71.8361 23.52C70.4708 24.0533 68.8921 24.32 67.1001 24.32ZM84.3034 24.32C83.2154 24.32 82.2127 24.1067 81.2954 23.68C80.3994 23.232 79.6847 22.6347 79.1514 21.888C78.6394 21.1413 78.3834 20.32 78.3834 19.424C78.3834 17.9733 78.97 16.8 80.1434 15.904C81.3167 15.008 82.9274 14.4 84.9754 14.08L89.3594 13.44V12.768C89.3594 11.8293 89.1247 11.1253 88.6554 10.656C88.186 10.1867 87.4287 9.952 86.3834 9.952C85.6794 9.952 85.1034 10.0907 84.6554 10.368C84.2287 10.624 83.8874 10.88 83.6314 11.136C83.3754 11.4133 83.2047 11.5947 83.1194 11.68C83.034 11.936 82.874 12.064 82.6394 12.064H80.1754C79.9834 12.064 79.8127 12 79.6634 11.872C79.5354 11.744 79.4714 11.5733 79.4714 11.36C79.4927 10.8267 79.7487 10.2187 80.2394 9.536C80.7514 8.85333 81.53 8.26667 82.5754 7.776C83.6207 7.28533 84.9007 7.04 86.4154 7.04C88.9327 7.04 90.7674 7.60533 91.9194 8.736C93.0714 9.86667 93.6474 11.3493 93.6474 13.184V23.232C93.6474 23.4453 93.5727 23.6267 93.4234 23.776C93.2954 23.9253 93.114 24 92.8794 24H90.2874C90.074 24 89.8927 23.9253 89.7434 23.776C89.594 23.6267 89.5194 23.4453 89.5194 23.232V21.984C89.05 22.6667 88.378 23.232 87.5034 23.68C86.65 24.1067 85.5834 24.32 84.3034 24.32ZM85.3914 21.28C86.5647 21.28 87.5247 20.896 88.2714 20.128C89.018 19.36 89.3914 18.24 89.3914 16.768V16.096L86.1914 16.608C84.954 16.8 84.0154 17.1093 83.3754 17.536C82.7567 17.9627 82.4474 18.4853 82.4474 19.104C82.4474 19.7867 82.7354 20.32 83.3114 20.704C83.8874 21.088 84.5807 21.28 85.3914 21.28ZM103.929 24.32C101.966 24.32 100.419 23.68 99.2886 22.4C98.158 21.0987 97.5926 19.3387 97.5926 17.12V8.128C97.5926 7.91467 97.6673 7.73333 97.8166 7.584C97.966 7.43467 98.1473 7.36 98.3606 7.36H101.177C101.411 7.36 101.593 7.43467 101.721 7.584C101.87 7.712 101.945 7.89333 101.945 8.128V16.928C101.945 19.5733 103.107 20.896 105.433 20.896C106.542 20.896 107.417 20.544 108.057 19.84C108.718 19.136 109.049 18.1653 109.049 16.928V8.128C109.049 7.91467 109.123 7.73333 109.273 7.584C109.422 7.43467 109.603 7.36 109.817 7.36H112.633C112.867 7.36 113.049 7.43467 113.177 7.584C113.326 7.712 113.401 7.89333 113.401 8.128V23.232C113.401 23.4453 113.326 23.6267 113.177 23.776C113.049 23.9253 112.867 24 112.633 24H110.041C109.827 24 109.646 23.9253 109.497 23.776C109.347 23.6267 109.273 23.4453 109.273 23.232V21.92C108.078 23.52 106.297 24.32 103.929 24.32ZM125.148 24C123.206 24 121.745 23.4987 120.764 22.496C119.804 21.472 119.324 19.9787 119.324 18.016V10.752H116.796C116.582 10.752 116.401 10.6773 116.252 10.528C116.102 10.3573 116.028 10.1653 116.028 9.952V8.128C116.028 7.91467 116.102 7.73333 116.252 7.584C116.401 7.43467 116.582 7.36 116.796 7.36H119.324V2.048C119.324 1.81333 119.398 1.632 119.548 1.504C119.697 1.35467 119.878 1.28 120.092 1.28H122.684C122.918 1.28 123.1 1.35467 123.228 1.504C123.377 1.632 123.452 1.81333 123.452 2.048V7.36H127.452C127.686 7.36 127.868 7.43467 127.996 7.584C128.145 7.712 128.22 7.89333 128.22 8.128V9.952C128.22 10.1867 128.145 10.3787 127.996 10.528C127.846 10.6773 127.665 10.752 127.452 10.752H123.452V17.696C123.452 18.6133 123.612 19.3067 123.932 19.776C124.252 20.2453 124.785 20.48 125.532 20.48H127.74C127.953 20.48 128.134 20.5547 128.284 20.704C128.433 20.8533 128.508 21.0347 128.508 21.248V23.232C128.508 23.4453 128.433 23.6267 128.284 23.776C128.156 23.9253 127.974 24 127.74 24H125.148ZM131.986 4.608C131.773 4.608 131.592 4.53333 131.442 4.384C131.293 4.23467 131.218 4.05333 131.218 3.84V1.536C131.218 1.32267 131.293 1.14133 131.442 0.991999C131.592 0.842666 131.773 0.768 131.986 0.768H134.898C135.112 0.768 135.293 0.842666 135.442 0.991999C135.613 1.14133 135.698 1.32267 135.698 1.536V3.84C135.698 4.05333 135.624 4.23467 135.474 4.384C135.325 4.53333 135.133 4.608 134.898 4.608H131.986ZM132.114 24C131.901 24 131.72 23.9253 131.57 23.776C131.421 23.6267 131.346 23.4453 131.346 23.232V8.128C131.346 7.91467 131.421 7.73333 131.57 7.584C131.72 7.43467 131.901 7.36 132.114 7.36H134.77C135.005 7.36 135.186 7.43467 135.314 7.584C135.464 7.712 135.538 7.89333 135.538 8.128V23.232C135.538 23.4453 135.464 23.6267 135.314 23.776C135.186 23.9253 135.005 24 134.77 24H132.114Z" fill="black"/>
</svg>
